<svg width="25" height="25" viewBox="0 0 25 25" fill="none" xmlns="http://www.w3.org/2000/svg">
<path d="M5.62231 12.9998C5.62231 11.642 5.62231 10.9631 5.89678 10.3664C6.17124 9.76967 6.68668 9.32786 7.71757 8.44424L8.71757 7.5871C10.5809 5.98997 11.5125 5.19141 12.6223 5.19141C13.7321 5.19141 14.6637 5.98997 16.5271 7.5871L17.5271 8.44424C18.5579 9.32786 19.0734 9.76967 19.3479 10.3664C19.6223 10.9631 19.6223 11.642 19.6223 12.9998V17.2402C19.6223 19.1258 19.6223 20.0686 19.0365 20.6544C18.4507 21.2402 17.5079 21.2402 15.6223 21.2402H9.62231C7.7367 21.2402 6.79389 21.2402 6.2081 20.6544C5.62231 20.0686 5.62231 19.1258 5.62231 17.2402V12.9998Z" stroke="#424142" stroke-width="2"/>
<path d="M5.62231 12.9998C5.62231 11.642 5.62231 10.9631 5.89678 10.3664C6.17124 9.76967 6.68668 9.32786 7.71757 8.44424L8.71757 7.5871C10.5809 5.98997 11.5125 5.19141 12.6223 5.19141C13.7321 5.19141 14.6637 5.98997 16.5271 7.5871L17.5271 8.44424C18.5579 9.32786 19.0734 9.76967 19.3479 10.3664C19.6223 10.9631 19.6223 11.642 19.6223 12.9998V17.2402C19.6223 19.1258 19.6223 20.0686 19.0365 20.6544C18.4507 21.2402 17.5079 21.2402 15.6223 21.2402H9.62231C7.7367 21.2402 6.79389 21.2402 6.2081 20.6544C5.62231 20.0686 5.62231 19.1258 5.62231 17.2402V12.9998Z" stroke="black" stroke-opacity="0.2" stroke-width="2"/>
<path d="M5.62231 12.9998C5.62231 11.642 5.62231 10.9631 5.89678 10.3664C6.17124 9.76967 6.68668 9.32786 7.71757 8.44424L8.71757 7.5871C10.5809 5.98997 11.5125 5.19141 12.6223 5.19141C13.7321 5.19141 14.6637 5.98997 16.5271 7.5871L17.5271 8.44424C18.5579 9.32786 19.0734 9.76967 19.3479 10.3664C19.6223 10.9631 19.6223 11.642 19.6223 12.9998V17.2402C19.6223 19.1258 19.6223 20.0686 19.0365 20.6544C18.4507 21.2402 17.5079 21.2402 15.6223 21.2402H9.62231C7.7367 21.2402 6.79389 21.2402 6.2081 20.6544C5.62231 20.0686 5.62231 19.1258 5.62231 17.2402V12.9998Z" stroke="black" stroke-opacity="0.2" stroke-width="2"/>
<path d="M5.62231 12.9998C5.62231 11.642 5.62231 10.9631 5.89678 10.3664C6.17124 9.76967 6.68668 9.32786 7.71757 8.44424L8.71757 7.5871C10.5809 5.98997 11.5125 5.19141 12.6223 5.19141C13.7321 5.19141 14.6637 5.98997 16.5271 7.5871L17.5271 8.44424C18.5579 9.32786 19.0734 9.76967 19.3479 10.3664C19.6223 10.9631 19.6223 11.642 19.6223 12.9998V17.2402C19.6223 19.1258 19.6223 20.0686 19.0365 20.6544C18.4507 21.2402 17.5079 21.2402 15.6223 21.2402H9.62231C7.7367 21.2402 6.79389 21.2402 6.2081 20.6544C5.62231 20.0686 5.62231 19.1258 5.62231 17.2402V12.9998Z" stroke="black" stroke-opacity="0.2" stroke-width="2"/>
<path d="M5.62231 12.9998C5.62231 11.642 5.62231 10.9631 5.89678 10.3664C6.17124 9.76967 6.68668 9.32786 7.71757 8.44424L8.71757 7.5871C10.5809 5.98997 11.5125 5.19141 12.6223 5.19141C13.7321 5.19141 14.6637 5.98997 16.5271 7.5871L17.5271 8.44424C18.5579 9.32786 19.0734 9.76967 19.3479 10.3664C19.6223 10.9631 19.6223 11.642 19.6223 12.9998V17.2402C19.6223 19.1258 19.6223 20.0686 19.0365 20.6544C18.4507 21.2402 17.5079 21.2402 15.6223 21.2402H9.62231C7.7367 21.2402 6.79389 21.2402 6.2081 20.6544C5.62231 20.0686 5.62231 19.1258 5.62231 17.2402V12.9998Z" stroke="black" stroke-opacity="0.2" stroke-width="2"/>
<path d="M5.62231 12.9998C5.62231 11.642 5.62231 10.9631 5.89678 10.3664C6.17124 9.76967 6.68668 9.32786 7.71757 8.44424L8.71757 7.5871C10.5809 5.98997 11.5125 5.19141 12.6223 5.19141C13.7321 5.19141 14.6637 5.98997 16.5271 7.5871L17.5271 8.44424C18.5579 9.32786 19.0734 9.76967 19.3479 10.3664C19.6223 10.9631 19.6223 11.642 19.6223 12.9998V17.2402C19.6223 19.1258 19.6223 20.0686 19.0365 20.6544C18.4507 21.2402 17.5079 21.2402 15.6223 21.2402H9.62231C7.7367 21.2402 6.79389 21.2402 6.2081 20.6544C5.62231 20.0686 5.62231 19.1258 5.62231 17.2402V12.9998Z" stroke="black" stroke-opacity="0.2" stroke-width="2"/>
<path d="M5.62231 12.9998C5.62231 11.642 5.62231 10.9631 5.89678 10.3664C6.17124 9.76967 6.68668 9.32786 7.71757 8.44424L8.71757 7.5871C10.5809 5.98997 11.5125 5.19141 12.6223 5.19141C13.7321 5.19141 14.6637 5.98997 16.5271 7.5871L17.5271 8.44424C18.5579 9.32786 19.0734 9.76967 19.3479 10.3664C19.6223 10.9631 19.6223 11.642 19.6223 12.9998V17.2402C19.6223 19.1258 19.6223 20.0686 19.0365 20.6544C18.4507 21.2402 17.5079 21.2402 15.6223 21.2402H9.62231C7.7367 21.2402 6.79389 21.2402 6.2081 20.6544C5.62231 20.0686 5.62231 19.1258 5.62231 17.2402V12.9998Z" stroke="black" stroke-opacity="0.2" stroke-width="2"/>
<path d="M5.62231 12.9998C5.62231 11.642 5.62231 10.9631 5.89678 10.3664C6.17124 9.76967 6.68668 9.32786 7.71757 8.44424L8.71757 7.5871C10.5809 5.98997 11.5125 5.19141 12.6223 5.19141C13.7321 5.19141 14.6637 5.98997 16.5271 7.5871L17.5271 8.44424C18.5579 9.32786 19.0734 9.76967 19.3479 10.3664C19.6223 10.9631 19.6223 11.642 19.6223 12.9998V17.2402C19.6223 19.1258 19.6223 20.0686 19.0365 20.6544C18.4507 21.2402 17.5079 21.2402 15.6223 21.2402H9.62231C7.7367 21.2402 6.79389 21.2402 6.2081 20.6544C5.62231 20.0686 5.62231 19.1258 5.62231 17.2402V12.9998Z" stroke="black" stroke-opacity="0.2" stroke-width="2"/>
<path d="M5.62231 12.9998C5.62231 11.642 5.62231 10.9631 5.89678 10.3664C6.17124 9.76967 6.68668 9.32786 7.71757 8.44424L8.71757 7.5871C10.5809 5.98997 11.5125 5.19141 12.6223 5.19141C13.7321 5.19141 14.6637 5.98997 16.5271 7.5871L17.5271 8.44424C18.5579 9.32786 19.0734 9.76967 19.3479 10.3664C19.6223 10.9631 19.6223 11.642 19.6223 12.9998V17.2402C19.6223 19.1258 19.6223 20.0686 19.0365 20.6544C18.4507 21.2402 17.5079 21.2402 15.6223 21.2402H9.62231C7.7367 21.2402 6.79389 21.2402 6.2081 20.6544C5.62231 20.0686 5.62231 19.1258 5.62231 17.2402V12.9998Z" stroke="black" stroke-opacity="0.2" stroke-width="2"/>
<path d="M5.62231 12.9998C5.62231 11.642 5.62231 10.9631 5.89678 10.3664C6.17124 9.76967 6.68668 9.32786 7.71757 8.44424L8.71757 7.5871C10.5809 5.98997 11.5125 5.19141 12.6223 5.19141C13.7321 5.19141 14.6637 5.98997 16.5271 7.5871L17.5271 8.44424C18.5579 9.32786 19.0734 9.76967 19.3479 10.3664C19.6223 10.9631 19.6223 11.642 19.6223 12.9998V17.2402C19.6223 19.1258 19.6223 20.0686 19.0365 20.6544C18.4507 21.2402 17.5079 21.2402 15.6223 21.2402H9.62231C7.7367 21.2402 6.79389 21.2402 6.2081 20.6544C5.62231 20.0686 5.62231 19.1258 5.62231 17.2402V12.9998Z" stroke="black" stroke-opacity="0.2" stroke-width="2"/>
<path d="M5.62231 12.9998C5.62231 11.642 5.62231 10.9631 5.89678 10.3664C6.17124 9.76967 6.68668 9.32786 7.71757 8.44424L8.71757 7.5871C10.5809 5.98997 11.5125 5.19141 12.6223 5.19141C13.7321 5.19141 14.6637 5.98997 16.5271 7.5871L17.5271 8.44424C18.5579 9.32786 19.0734 9.76967 19.3479 10.3664C19.6223 10.9631 19.6223 11.642 19.6223 12.9998V17.2402C19.6223 19.1258 19.6223 20.0686 19.0365 20.6544C18.4507 21.2402 17.5079 21.2402 15.6223 21.2402H9.62231C7.7367 21.2402 6.79389 21.2402 6.2081 20.6544C5.62231 20.0686 5.62231 19.1258 5.62231 17.2402V12.9998Z" stroke="black" stroke-opacity="0.2" stroke-width="2"/>
<path d="M15.1223 21.2402V16.2402C15.1223 15.6879 14.6746 15.2402 14.1223 15.2402H11.1223C10.57 15.2402 10.1223 15.6879 10.1223 16.2402V21.2402" stroke="#424142" stroke-width="2" stroke-linecap="round" stroke-linejoin="round"/>
<path d="M15.1223 21.2402V16.2402C15.1223 15.6879 14.6746 15.2402 14.1223 15.2402H11.1223C10.57 15.2402 10.1223 15.6879 10.1223 16.2402V21.2402" stroke="black" stroke-opacity="0.2" stroke-width="2" stroke-linecap="round" stroke-linejoin="round"/>
<path d="M15.1223 21.2402V16.2402C15.1223 15.6879 14.6746 15.2402 14.1223 15.2402H11.1223C10.57 15.2402 10.1223 15.6879 10.1223 16.2402V21.2402" stroke="black" stroke-opacity="0.2" stroke-width="2" stroke-linecap="round" stroke-linejoin="round"/>
<path d="M15.1223 21.2402V16.2402C15.1223 15.6879 14.6746 15.2402 14.1223 15.2402H11.1223C10.57 15.2402 10.1223 15.6879 10.1223 16.2402V21.2402" stroke="black" stroke-opacity="0.2" stroke-width="2" stroke-linecap="round" stroke-linejoin="round"/>
<path d="M15.1223 21.2402V16.2402C15.1223 15.6879 14.6746 15.2402 14.1223 15.2402H11.1223C10.57 15.2402 10.1223 15.6879 10.1223 16.2402V21.2402" stroke="black" stroke-opacity="0.2" stroke-width="2" stroke-linecap="round" stroke-linejoin="round"/>
<path d="M15.1223 21.2402V16.2402C15.1223 15.6879 14.6746 15.2402 14.1223 15.2402H11.1223C10.57 15.2402 10.1223 15.6879 10.1223 16.2402V21.2402" stroke="black" stroke-opacity="0.2" stroke-width="2" stroke-linecap="round" stroke-linejoin="round"/>
<path d="M15.1223 21.2402V16.2402C15.1223 15.6879 14.6746 15.2402 14.1223 15.2402H11.1223C10.57 15.2402 10.1223 15.6879 10.1223 16.2402V21.2402" stroke="black" stroke-opacity="0.2" stroke-width="2" stroke-linecap="round" stroke-linejoin="round"/>
<path d="M15.1223 21.2402V16.2402C15.1223 15.6879 14.6746 15.2402 14.1223 15.2402H11.1223C10.57 15.2402 10.1223 15.6879 10.1223 16.2402V21.2402" stroke="black" stroke-opacity="0.2" stroke-width="2" stroke-linecap="round" stroke-linejoin="round"/>
<path d="M15.1223 21.2402V16.2402C15.1223 15.6879 14.6746 15.2402 14.1223 15.2402H11.1223C10.57 15.2402 10.1223 15.6879 10.1223 16.2402V21.2402" stroke="black" stroke-opacity="0.2" stroke-width="2" stroke-linecap="round" stroke-linejoin="round"/>
<path d="M15.1223 21.2402V16.2402C15.1223 15.6879 14.6746 15.2402 14.1223 15.2402H11.1223C10.57 15.2402 10.1223 15.6879 10.1223 16.2402V21.2402" stroke="black" stroke-opacity="0.2" stroke-width="2" stroke-linecap="round" stroke-linejoin="round"/>
<path d="M15.1223 21.2402V16.2402C15.1223 15.6879 14.6746 15.2402 14.1223 15.2402H11.1223C10.57 15.2402 10.1223 15.6879 10.1223 16.2402V21.2402" stroke="black" stroke-opacity="0.2" stroke-width="2" stroke-linecap="round" stroke-linejoin="round"/>
</svg>
