<svg width="25" height="25" viewBox="0 0 25 25" fill="none" xmlns="http://www.w3.org/2000/svg">
<circle cx="11.9539" cy="11.4038" r="7" stroke="#424142" stroke-width="2"/>
<circle cx="11.9539" cy="11.4038" r="7" stroke="black" stroke-opacity="0.2" stroke-width="2"/>
<circle cx="11.9539" cy="11.4038" r="7" stroke="black" stroke-opacity="0.2" stroke-width="2"/>
<circle cx="11.9539" cy="11.4038" r="7" stroke="black" stroke-opacity="0.2" stroke-width="2"/>
<circle cx="11.9539" cy="11.4038" r="7" stroke="black" stroke-opacity="0.2" stroke-width="2"/>
<circle cx="11.9539" cy="11.4038" r="7" stroke="black" stroke-opacity="0.2" stroke-width="2"/>
<circle cx="11.9539" cy="11.4038" r="7" stroke="black" stroke-opacity="0.2" stroke-width="2"/>
<circle cx="11.9539" cy="11.4038" r="7" stroke="black" stroke-opacity="0.2" stroke-width="2"/>
<circle cx="11.9539" cy="11.4038" r="7" stroke="black" stroke-opacity="0.2" stroke-width="2"/>
<circle cx="11.9539" cy="11.4038" r="7" stroke="black" stroke-opacity="0.2" stroke-width="2"/>
<circle cx="11.9539" cy="11.4038" r="7" stroke="black" stroke-opacity="0.2" stroke-width="2"/>
<path d="M20.9539 20.4038L17.9539 17.4038" stroke="#424142" stroke-width="2" stroke-linecap="round"/>
<path d="M20.9539 20.4038L17.9539 17.4038" stroke="black" stroke-opacity="0.2" stroke-width="2" stroke-linecap="round"/>
<path d="M20.9539 20.4038L17.9539 17.4038" stroke="black" stroke-opacity="0.2" stroke-width="2" stroke-linecap="round"/>
<path d="M20.9539 20.4038L17.9539 17.4038" stroke="black" stroke-opacity="0.2" stroke-width="2" stroke-linecap="round"/>
<path d="M20.9539 20.4038L17.9539 17.4038" stroke="black" stroke-opacity="0.2" stroke-width="2" stroke-linecap="round"/>
<path d="M20.9539 20.4038L17.9539 17.4038" stroke="black" stroke-opacity="0.2" stroke-width="2" stroke-linecap="round"/>
<path d="M20.9539 20.4038L17.9539 17.4038" stroke="black" stroke-opacity="0.2" stroke-width="2" stroke-linecap="round"/>
<path d="M20.9539 20.4038L17.9539 17.4038" stroke="black" stroke-opacity="0.2" stroke-width="2" stroke-linecap="round"/>
<path d="M20.9539 20.4038L17.9539 17.4038" stroke="black" stroke-opacity="0.2" stroke-width="2" stroke-linecap="round"/>
<path d="M20.9539 20.4038L17.9539 17.4038" stroke="black" stroke-opacity="0.2" stroke-width="2" stroke-linecap="round"/>
<path d="M20.9539 20.4038L17.9539 17.4038" stroke="black" stroke-opacity="0.2" stroke-width="2" stroke-linecap="round"/>
</svg>
