<svg width="25" height="25" viewBox="0 0 25 25" fill="none" xmlns="http://www.w3.org/2000/svg">
<path d="M19.2053 11.9116V9.11162C19.2053 7.99152 19.2053 7.43146 18.9873 7.00364C18.7955 6.62732 18.4896 6.32135 18.1132 6.12961C17.6854 5.91162 17.1254 5.91162 16.0053 5.91162H7.40526C6.28516 5.91162 5.7251 5.91162 5.29728 6.12961C4.92096 6.32135 4.61499 6.62732 4.42325 7.00364C4.20526 7.43146 4.20526 7.99152 4.20526 9.11162V14.7116C4.20526 15.8317 4.20526 16.3918 4.42325 16.8196C4.61499 17.1959 4.92096 17.5019 5.29728 17.6936C5.7251 17.9116 6.28516 17.9116 7.40526 17.9116H14.2053" stroke="#424142" stroke-width="2" stroke-linecap="round"/>
<path d="M19.2053 11.9116V9.11162C19.2053 7.99152 19.2053 7.43146 18.9873 7.00364C18.7955 6.62732 18.4896 6.32135 18.1132 6.12961C17.6854 5.91162 17.1254 5.91162 16.0053 5.91162H7.40526C6.28516 5.91162 5.7251 5.91162 5.29728 6.12961C4.92096 6.32135 4.61499 6.62732 4.42325 7.00364C4.20526 7.43146 4.20526 7.99152 4.20526 9.11162V14.7116C4.20526 15.8317 4.20526 16.3918 4.42325 16.8196C4.61499 17.1959 4.92096 17.5019 5.29728 17.6936C5.7251 17.9116 6.28516 17.9116 7.40526 17.9116H14.2053" stroke="black" stroke-opacity="0.2" stroke-width="2" stroke-linecap="round"/>
<path d="M19.2053 11.9116V9.11162C19.2053 7.99152 19.2053 7.43146 18.9873 7.00364C18.7955 6.62732 18.4896 6.32135 18.1132 6.12961C17.6854 5.91162 17.1254 5.91162 16.0053 5.91162H7.40526C6.28516 5.91162 5.7251 5.91162 5.29728 6.12961C4.92096 6.32135 4.61499 6.62732 4.42325 7.00364C4.20526 7.43146 4.20526 7.99152 4.20526 9.11162V14.7116C4.20526 15.8317 4.20526 16.3918 4.42325 16.8196C4.61499 17.1959 4.92096 17.5019 5.29728 17.6936C5.7251 17.9116 6.28516 17.9116 7.40526 17.9116H14.2053" stroke="black" stroke-opacity="0.2" stroke-width="2" stroke-linecap="round"/>
<path d="M19.2053 11.9116V9.11162C19.2053 7.99152 19.2053 7.43146 18.9873 7.00364C18.7955 6.62732 18.4896 6.32135 18.1132 6.12961C17.6854 5.91162 17.1254 5.91162 16.0053 5.91162H7.40526C6.28516 5.91162 5.7251 5.91162 5.29728 6.12961C4.92096 6.32135 4.61499 6.62732 4.42325 7.00364C4.20526 7.43146 4.20526 7.99152 4.20526 9.11162V14.7116C4.20526 15.8317 4.20526 16.3918 4.42325 16.8196C4.61499 17.1959 4.92096 17.5019 5.29728 17.6936C5.7251 17.9116 6.28516 17.9116 7.40526 17.9116H14.2053" stroke="black" stroke-opacity="0.2" stroke-width="2" stroke-linecap="round"/>
<path d="M19.2053 11.9116V9.11162C19.2053 7.99152 19.2053 7.43146 18.9873 7.00364C18.7955 6.62732 18.4896 6.32135 18.1132 6.12961C17.6854 5.91162 17.1254 5.91162 16.0053 5.91162H7.40526C6.28516 5.91162 5.7251 5.91162 5.29728 6.12961C4.92096 6.32135 4.61499 6.62732 4.42325 7.00364C4.20526 7.43146 4.20526 7.99152 4.20526 9.11162V14.7116C4.20526 15.8317 4.20526 16.3918 4.42325 16.8196C4.61499 17.1959 4.92096 17.5019 5.29728 17.6936C5.7251 17.9116 6.28516 17.9116 7.40526 17.9116H14.2053" stroke="black" stroke-opacity="0.2" stroke-width="2" stroke-linecap="round"/>
<path d="M19.2053 11.9116V9.11162C19.2053 7.99152 19.2053 7.43146 18.9873 7.00364C18.7955 6.62732 18.4896 6.32135 18.1132 6.12961C17.6854 5.91162 17.1254 5.91162 16.0053 5.91162H7.40526C6.28516 5.91162 5.7251 5.91162 5.29728 6.12961C4.92096 6.32135 4.61499 6.62732 4.42325 7.00364C4.20526 7.43146 4.20526 7.99152 4.20526 9.11162V14.7116C4.20526 15.8317 4.20526 16.3918 4.42325 16.8196C4.61499 17.1959 4.92096 17.5019 5.29728 17.6936C5.7251 17.9116 6.28516 17.9116 7.40526 17.9116H14.2053" stroke="black" stroke-opacity="0.2" stroke-width="2" stroke-linecap="round"/>
<path d="M19.2053 11.9116V9.11162C19.2053 7.99152 19.2053 7.43146 18.9873 7.00364C18.7955 6.62732 18.4896 6.32135 18.1132 6.12961C17.6854 5.91162 17.1254 5.91162 16.0053 5.91162H7.40526C6.28516 5.91162 5.7251 5.91162 5.29728 6.12961C4.92096 6.32135 4.61499 6.62732 4.42325 7.00364C4.20526 7.43146 4.20526 7.99152 4.20526 9.11162V14.7116C4.20526 15.8317 4.20526 16.3918 4.42325 16.8196C4.61499 17.1959 4.92096 17.5019 5.29728 17.6936C5.7251 17.9116 6.28516 17.9116 7.40526 17.9116H14.2053" stroke="black" stroke-opacity="0.2" stroke-width="2" stroke-linecap="round"/>
<path d="M19.2053 11.9116V9.11162C19.2053 7.99152 19.2053 7.43146 18.9873 7.00364C18.7955 6.62732 18.4896 6.32135 18.1132 6.12961C17.6854 5.91162 17.1254 5.91162 16.0053 5.91162H7.40526C6.28516 5.91162 5.7251 5.91162 5.29728 6.12961C4.92096 6.32135 4.61499 6.62732 4.42325 7.00364C4.20526 7.43146 4.20526 7.99152 4.20526 9.11162V14.7116C4.20526 15.8317 4.20526 16.3918 4.42325 16.8196C4.61499 17.1959 4.92096 17.5019 5.29728 17.6936C5.7251 17.9116 6.28516 17.9116 7.40526 17.9116H14.2053" stroke="black" stroke-opacity="0.2" stroke-width="2" stroke-linecap="round"/>
<path d="M19.2053 11.9116V9.11162C19.2053 7.99152 19.2053 7.43146 18.9873 7.00364C18.7955 6.62732 18.4896 6.32135 18.1132 6.12961C17.6854 5.91162 17.1254 5.91162 16.0053 5.91162H7.40526C6.28516 5.91162 5.7251 5.91162 5.29728 6.12961C4.92096 6.32135 4.61499 6.62732 4.42325 7.00364C4.20526 7.43146 4.20526 7.99152 4.20526 9.11162V14.7116C4.20526 15.8317 4.20526 16.3918 4.42325 16.8196C4.61499 17.1959 4.92096 17.5019 5.29728 17.6936C5.7251 17.9116 6.28516 17.9116 7.40526 17.9116H14.2053" stroke="black" stroke-opacity="0.2" stroke-width="2" stroke-linecap="round"/>
<path d="M19.2053 11.9116V9.11162C19.2053 7.99152 19.2053 7.43146 18.9873 7.00364C18.7955 6.62732 18.4896 6.32135 18.1132 6.12961C17.6854 5.91162 17.1254 5.91162 16.0053 5.91162H7.40526C6.28516 5.91162 5.7251 5.91162 5.29728 6.12961C4.92096 6.32135 4.61499 6.62732 4.42325 7.00364C4.20526 7.43146 4.20526 7.99152 4.20526 9.11162V14.7116C4.20526 15.8317 4.20526 16.3918 4.42325 16.8196C4.61499 17.1959 4.92096 17.5019 5.29728 17.6936C5.7251 17.9116 6.28516 17.9116 7.40526 17.9116H14.2053" stroke="black" stroke-opacity="0.2" stroke-width="2" stroke-linecap="round"/>
<path d="M19.2053 11.9116V9.11162C19.2053 7.99152 19.2053 7.43146 18.9873 7.00364C18.7955 6.62732 18.4896 6.32135 18.1132 6.12961C17.6854 5.91162 17.1254 5.91162 16.0053 5.91162H7.40526C6.28516 5.91162 5.7251 5.91162 5.29728 6.12961C4.92096 6.32135 4.61499 6.62732 4.42325 7.00364C4.20526 7.43146 4.20526 7.99152 4.20526 9.11162V14.7116C4.20526 15.8317 4.20526 16.3918 4.42325 16.8196C4.61499 17.1959 4.92096 17.5019 5.29728 17.6936C5.7251 17.9116 6.28516 17.9116 7.40526 17.9116H14.2053" stroke="black" stroke-opacity="0.2" stroke-width="2" stroke-linecap="round"/>
<path d="M8.20526 13.9116H12.2053" stroke="#424142" stroke-width="2" stroke-linecap="round"/>
<path d="M8.20526 13.9116H12.2053" stroke="black" stroke-opacity="0.2" stroke-width="2" stroke-linecap="round"/>
<path d="M8.20526 13.9116H12.2053" stroke="black" stroke-opacity="0.2" stroke-width="2" stroke-linecap="round"/>
<path d="M8.20526 13.9116H12.2053" stroke="black" stroke-opacity="0.2" stroke-width="2" stroke-linecap="round"/>
<path d="M8.20526 13.9116H12.2053" stroke="black" stroke-opacity="0.2" stroke-width="2" stroke-linecap="round"/>
<path d="M8.20526 13.9116H12.2053" stroke="black" stroke-opacity="0.2" stroke-width="2" stroke-linecap="round"/>
<path d="M8.20526 13.9116H12.2053" stroke="black" stroke-opacity="0.2" stroke-width="2" stroke-linecap="round"/>
<path d="M8.20526 13.9116H12.2053" stroke="black" stroke-opacity="0.2" stroke-width="2" stroke-linecap="round"/>
<path d="M8.20526 13.9116H12.2053" stroke="black" stroke-opacity="0.2" stroke-width="2" stroke-linecap="round"/>
<path d="M8.20526 13.9116H12.2053" stroke="black" stroke-opacity="0.2" stroke-width="2" stroke-linecap="round"/>
<path d="M8.20526 13.9116H12.2053" stroke="black" stroke-opacity="0.2" stroke-width="2" stroke-linecap="round"/>
<path d="M8.20526 9.91162H15.2053" stroke="#424142" stroke-width="2" stroke-linecap="round"/>
<path d="M8.20526 9.91162H15.2053" stroke="black" stroke-opacity="0.2" stroke-width="2" stroke-linecap="round"/>
<path d="M8.20526 9.91162H15.2053" stroke="black" stroke-opacity="0.2" stroke-width="2" stroke-linecap="round"/>
<path d="M8.20526 9.91162H15.2053" stroke="black" stroke-opacity="0.2" stroke-width="2" stroke-linecap="round"/>
<path d="M8.20526 9.91162H15.2053" stroke="black" stroke-opacity="0.2" stroke-width="2" stroke-linecap="round"/>
<path d="M8.20526 9.91162H15.2053" stroke="black" stroke-opacity="0.2" stroke-width="2" stroke-linecap="round"/>
<path d="M8.20526 9.91162H15.2053" stroke="black" stroke-opacity="0.2" stroke-width="2" stroke-linecap="round"/>
<path d="M8.20526 9.91162H15.2053" stroke="black" stroke-opacity="0.2" stroke-width="2" stroke-linecap="round"/>
<path d="M8.20526 9.91162H15.2053" stroke="black" stroke-opacity="0.2" stroke-width="2" stroke-linecap="round"/>
<path d="M8.20526 9.91162H15.2053" stroke="black" stroke-opacity="0.2" stroke-width="2" stroke-linecap="round"/>
<path d="M8.20526 9.91162H15.2053" stroke="black" stroke-opacity="0.2" stroke-width="2" stroke-linecap="round"/>
<circle cx="18.2053" cy="15.9116" r="1" stroke="#424142" stroke-width="2"/>
<circle cx="18.2053" cy="15.9116" r="1" stroke="black" stroke-opacity="0.2" stroke-width="2"/>
<circle cx="18.2053" cy="15.9116" r="1" stroke="black" stroke-opacity="0.2" stroke-width="2"/>
<circle cx="18.2053" cy="15.9116" r="1" stroke="black" stroke-opacity="0.2" stroke-width="2"/>
<circle cx="18.2053" cy="15.9116" r="1" stroke="black" stroke-opacity="0.2" stroke-width="2"/>
<circle cx="18.2053" cy="15.9116" r="1" stroke="black" stroke-opacity="0.2" stroke-width="2"/>
<circle cx="18.2053" cy="15.9116" r="1" stroke="black" stroke-opacity="0.2" stroke-width="2"/>
<circle cx="18.2053" cy="15.9116" r="1" stroke="black" stroke-opacity="0.2" stroke-width="2"/>
<circle cx="18.2053" cy="15.9116" r="1" stroke="black" stroke-opacity="0.2" stroke-width="2"/>
<circle cx="18.2053" cy="15.9116" r="1" stroke="black" stroke-opacity="0.2" stroke-width="2"/>
<circle cx="18.2053" cy="15.9116" r="1" stroke="black" stroke-opacity="0.2" stroke-width="2"/>
<path d="M20.2053 20.9116C20.2053 20.9116 19.7053 19.9116 18.2053 19.9116C16.7053 19.9116 16.2053 20.9116 16.2053 20.9116" stroke="#424142" stroke-width="2" stroke-linecap="round"/>
<path d="M20.2053 20.9116C20.2053 20.9116 19.7053 19.9116 18.2053 19.9116C16.7053 19.9116 16.2053 20.9116 16.2053 20.9116" stroke="black" stroke-opacity="0.2" stroke-width="2" stroke-linecap="round"/>
<path d="M20.2053 20.9116C20.2053 20.9116 19.7053 19.9116 18.2053 19.9116C16.7053 19.9116 16.2053 20.9116 16.2053 20.9116" stroke="black" stroke-opacity="0.2" stroke-width="2" stroke-linecap="round"/>
<path d="M20.2053 20.9116C20.2053 20.9116 19.7053 19.9116 18.2053 19.9116C16.7053 19.9116 16.2053 20.9116 16.2053 20.9116" stroke="black" stroke-opacity="0.2" stroke-width="2" stroke-linecap="round"/>
<path d="M20.2053 20.9116C20.2053 20.9116 19.7053 19.9116 18.2053 19.9116C16.7053 19.9116 16.2053 20.9116 16.2053 20.9116" stroke="black" stroke-opacity="0.2" stroke-width="2" stroke-linecap="round"/>
<path d="M20.2053 20.9116C20.2053 20.9116 19.7053 19.9116 18.2053 19.9116C16.7053 19.9116 16.2053 20.9116 16.2053 20.9116" stroke="black" stroke-opacity="0.2" stroke-width="2" stroke-linecap="round"/>
<path d="M20.2053 20.9116C20.2053 20.9116 19.7053 19.9116 18.2053 19.9116C16.7053 19.9116 16.2053 20.9116 16.2053 20.9116" stroke="black" stroke-opacity="0.2" stroke-width="2" stroke-linecap="round"/>
<path d="M20.2053 20.9116C20.2053 20.9116 19.7053 19.9116 18.2053 19.9116C16.7053 19.9116 16.2053 20.9116 16.2053 20.9116" stroke="black" stroke-opacity="0.2" stroke-width="2" stroke-linecap="round"/>
<path d="M20.2053 20.9116C20.2053 20.9116 19.7053 19.9116 18.2053 19.9116C16.7053 19.9116 16.2053 20.9116 16.2053 20.9116" stroke="black" stroke-opacity="0.2" stroke-width="2" stroke-linecap="round"/>
<path d="M20.2053 20.9116C20.2053 20.9116 19.7053 19.9116 18.2053 19.9116C16.7053 19.9116 16.2053 20.9116 16.2053 20.9116" stroke="black" stroke-opacity="0.2" stroke-width="2" stroke-linecap="round"/>
<path d="M20.2053 20.9116C20.2053 20.9116 19.7053 19.9116 18.2053 19.9116C16.7053 19.9116 16.2053 20.9116 16.2053 20.9116" stroke="black" stroke-opacity="0.2" stroke-width="2" stroke-linecap="round"/>
</svg>
